<svg width="1440" height="649" viewBox="0 0 1440 649" fill="none" xmlns="http://www.w3.org/2000/svg">
<path d="M-7.34941 777.139C13.6951 683.763 105.194 490.381 302.835 463.861C549.885 430.71 728.486 611.867 1004.93 555.041C1226.09 509.58 1411.76 167.187 1476.94 1.67353M-70.448 451.4C-33.5783 522.251 90.4973 653.927 291.842 613.821C543.523 563.69 878.853 96.6255 1200.92 134.32C1458.57 164.476 1677.58 206.163 1754.88 223.238M-65.8108 635.104C-52.2397 522.775 34.9111 287.756 274.945 246.305C574.987 194.491 799.504 399.035 1123.59 335.841C1382.86 285.286 1553.74 132.606 1606.77 62.5852" stroke="#508664" stroke-opacity="0.16" stroke-width="3" stroke-linecap="round"/>
</svg>
