<svg width="20" height="20" viewBox="0 0 20 20" fill="none" xmlns="http://www.w3.org/2000/svg">
<g id="vuesax/outline/location">
<g id="location">
<path id="Vector" d="M10 11.8084C8.22502 11.8084 6.77502 10.3667 6.77502 8.58337C6.77502 6.80003 8.22502 5.3667 10 5.3667C11.775 5.3667 13.225 6.80837 13.225 8.5917C13.225 10.375 11.775 11.8084 10 11.8084ZM10 6.6167C8.91669 6.6167 8.02502 7.50003 8.02502 8.5917C8.02502 9.68337 8.90836 10.5667 10 10.5667C11.0917 10.5667 11.975 9.68337 11.975 8.5917C11.975 7.50003 11.0834 6.6167 10 6.6167Z" fill="#548C67"/>
<path id="Vector_2" d="M10 18.9665C8.76669 18.9665 7.52502 18.4998 6.55836 17.5748C4.10002 15.2082 1.38336 11.4332 2.40836 6.9415C3.33336 2.8665 6.89169 1.0415 10 1.0415C10 1.0415 10 1.0415 10.0084 1.0415C13.1167 1.0415 16.675 2.8665 17.6 6.94984C18.6167 11.4415 15.9 15.2082 13.4417 17.5748C12.475 18.4998 11.2334 18.9665 10 18.9665ZM10 2.2915C7.57502 2.2915 4.45836 3.58317 3.63336 7.2165C2.73336 11.1415 5.20002 14.5248 7.43336 16.6665C8.87502 18.0582 11.1334 18.0582 12.575 16.6665C14.8 14.5248 17.2667 11.1415 16.3834 7.2165C15.55 3.58317 12.425 2.2915 10 2.2915Z" fill="#548C67"/>
</g>
</g>
</svg>
