<svg width="74" height="40" viewBox="0 0 74 40" fill="none" xmlns="http://www.w3.org/2000/svg">
<path d="M29.6384 15.9061C29.924 15.9059 30.2031 15.8211 30.4405 15.6624C30.6779 15.5036 30.8628 15.278 30.9721 15.0141C31.0813 14.7503 31.1098 14.4599 31.0541 14.1799C30.9983 13.8998 30.8608 13.6425 30.6588 13.4406C30.4569 13.2387 30.1996 13.1011 29.9196 13.0454C29.6395 12.9896 29.3492 13.0182 29.0853 13.1274C28.8214 13.2366 28.5959 13.4216 28.4371 13.659C28.2784 13.8963 28.1935 14.1754 28.1934 14.461C28.194 14.844 28.3465 15.2112 28.6173 15.4821C28.8882 15.7529 29.2554 15.9054 29.6384 15.9061Z" fill="#E82228"/>
<path d="M66.5654 13.7246H69.4556V31.1258H66.5654V13.7246Z" fill="#E82228"/>
<path d="M62.7314 13.7246H65.6225V31.1258H62.7314V13.7246Z" fill="#E82228"/>
<path d="M51.2565 28.9434L50.1657 31.1259H44.4158C44.1902 31.1321 43.9659 31.0907 43.7574 31.0044C43.549 30.9182 43.361 30.789 43.2057 30.6252C42.885 30.2918 42.7051 29.8475 42.7035 29.3848V19.7714C42.6989 19.5413 42.7411 19.3126 42.8274 19.0992C42.9138 18.8859 43.0424 18.6922 43.2057 18.53C43.3596 18.3625 43.5467 18.2288 43.755 18.1374C43.9633 18.046 44.1883 17.9988 44.4158 17.999H51.2574L50.1665 20.2111H45.9192V28.9425L51.2565 28.9434Z" fill="#E82228"/>
<path d="M28.0469 18H31.2313V31.126H28.0469V18Z" fill="#E82228"/>
<path d="M27.1005 29.387C27.1067 29.6171 27.0654 29.8459 26.9793 30.0593C26.8932 30.2727 26.764 30.4661 26.5999 30.6275C26.4464 30.7931 26.2588 30.9236 26.0501 31.01C25.8414 31.0964 25.6165 31.1367 25.3907 31.1281H17.5176L18.5788 28.9456H23.9169V25.6664H19.1986C18.9748 25.6672 18.7535 25.6202 18.5494 25.5286C18.3453 25.4371 18.163 25.303 18.0148 25.1354C17.8487 24.9822 17.718 24.7947 17.6317 24.5859C17.5454 24.3771 17.5056 24.152 17.515 23.9262V19.7694C17.5108 19.3133 17.6837 18.8735 17.9972 18.5423C18.3107 18.2111 18.7405 18.0144 19.196 17.9937H27.098L26.0368 20.2057H20.6978V23.4789H25.3882C25.6154 23.4792 25.8402 23.5247 26.0496 23.6128C26.259 23.7008 26.4488 23.8297 26.6079 23.9918C26.767 24.1539 26.8923 24.3461 26.9765 24.5571C27.0606 24.7681 27.1019 24.9937 27.098 25.2208L27.1005 29.387Z" fill="#E82228"/>
<path d="M16.5711 31.126H7.37119L8.43323 28.9436H12.6206L10.1126 16.8517L5.54218 31.1268H2.12012L8.40278 11.04H11.8223L16.5711 31.126Z" fill="#E82228"/>
<path d="M55.3879 20.2119H58.6011V24.1362H55.3879V20.2119ZM61.7864 26.3186V19.7722C61.7914 19.5423 61.7497 19.3137 61.6636 19.1005C61.5776 18.8872 61.449 18.6937 61.2858 18.5317C61.1339 18.3615 60.9471 18.226 60.7382 18.1344C60.5293 18.0427 60.3031 17.9971 60.0749 18.0007H53.9106C53.6787 17.9975 53.4487 18.0432 53.2356 18.1347C53.0225 18.2261 52.831 18.3614 52.6736 18.5317C52.5099 18.6934 52.3809 18.8868 52.2945 19.1001C52.2081 19.3134 52.1662 19.5421 52.1713 19.7722V29.3873C52.172 29.8502 52.352 30.2948 52.6736 30.6277C52.8326 30.794 53.0251 30.9246 53.2384 31.0109C53.4516 31.0972 53.6807 31.1372 53.9106 31.1283H59.6606L60.7227 28.945H55.387V26.3238L61.7864 26.3186Z" fill="#E82228"/>
<path d="M38.5748 28.9435H35.3887V25.0243H38.5748V28.9435ZM41.2891 18.531C41.1354 18.3633 40.9484 18.2294 40.7401 18.138C40.5317 18.0466 40.3066 17.9996 40.0791 18H34.3291L33.2401 20.212H38.5782V22.808H33.8895C33.6616 22.805 33.4357 22.8509 33.227 22.9425C33.0183 23.0341 32.8316 23.1693 32.6794 23.339C32.3606 23.6728 32.1818 24.1161 32.1797 24.5778V29.3874C32.1809 29.8497 32.3598 30.2938 32.6794 30.6279C32.8331 30.7936 33.0208 30.9241 33.2297 31.0105C33.4385 31.0969 33.6636 31.1372 33.8895 31.1285H40.0833C40.3089 31.1347 40.5332 31.0933 40.7417 31.0071C40.9501 30.9208 41.1381 30.7916 41.2934 30.6279C41.613 30.294 41.7914 29.8496 41.7914 29.3874V19.7715C41.7967 19.5418 41.7553 19.3134 41.6697 19.1001C41.5841 18.8869 41.4561 18.6933 41.2934 18.531" fill="#E82228"/>
<path d="M46.9508 8.94507C46.9508 8.94507 35.3883 3.07674 31.9696 1.77962C28.5763 0.480807 25.8054 0.303259 24.6249 1.57163C23.4733 2.80956 26.0396 6.64511 22.2936 6.20287C18.579 5.73019 13.6823 3.66615 11.4119 3.58159C9.13983 3.52324 9.67083 4.37809 9.67083 4.37809L8.34409 5.14419C8.87461 5.25361 9.39634 5.40201 9.90504 5.58814C10.0465 5.64994 10.1848 5.71877 10.3194 5.79443C11.0872 6.17578 12.4443 7.59383 12.0004 9.06852C11.5895 10.5432 7.2229 10.3369 5.0413 10.2177C2.85716 10.1331 1.20657 10.7487 1.05859 12.4881C1.11243 13.9439 1.64068 15.3421 2.56288 16.4699C2.35132 15.7584 2.21308 15.0271 2.15025 14.2874C2.03187 10.8358 12.1484 13.3438 13.1529 10.1872C13.5351 9.03724 12.2372 7.1491 14.7139 6.6798C17.1906 6.2105 22.2658 7.91434 23.5925 7.12034C24.9192 6.3534 25.0071 4.70279 26.1292 4.08298C27.22 3.43273 30.0527 3.43276 35.1558 4.99793C40.1379 6.53012 46.9516 8.94848 46.9516 8.94848" fill="#E82228"/>
<path d="M47.3341 8.79819C47.3341 8.79819 35.2693 2.69394 31.8802 1.45432C28.4573 0.215545 24.7427 -0.608933 23.4439 0.570652C22.1755 1.75447 26.3036 6.1456 22.7674 5.72873C19.227 5.28564 13.5937 2.57298 11.3233 2.51548C10.757 2.43175 10.1803 2.5731 9.71694 2.90926C9.25355 3.24543 8.94025 3.74969 8.84406 4.31404L7.5486 5.05222C8.21922 5.16683 8.87271 5.36571 9.49347 5.64414C10.142 5.99928 12.0606 7.00133 11.9126 8.38639C11.7647 9.77145 7.13344 9.5702 4.92479 9.47888C2.74065 9.39432 1.08838 9.9803 0.970002 11.6326C0.822025 13.284 2.35675 15.3751 2.47428 15.4055C2.1197 14.7626 1.9172 14.047 1.88237 13.3136C1.85108 11.8972 4.56626 11.2174 7.48775 11.159C10.4092 11.1007 12.5612 10.5671 12.9121 9.44925C13.2977 8.32717 11.5871 5.96802 14.063 5.52409C16.5388 5.08016 22.6465 7.20677 23.9436 6.46773C25.2703 5.73208 24.4442 3.72468 25.8605 3.04737C27.2769 2.37006 30.2254 2.28126 35.211 4.19735C39.245 5.74821 43.2855 7.28212 47.3323 8.79902" fill="#BABABA"/>
<path d="M72.2545 14.6041C72.2083 14.6254 72.1573 14.6345 72.1066 14.6303H71.9002V14.309H72.1066C72.1574 14.3046 72.2085 14.3139 72.2545 14.336C72.2749 14.3548 72.2907 14.3779 72.3008 14.4037C72.3109 14.4295 72.315 14.4572 72.3128 14.4848C72.3061 14.5296 72.2857 14.5713 72.2545 14.6041ZM72.4904 14.6303C72.5277 14.5798 72.5478 14.5188 72.5479 14.4561C72.5518 14.4098 72.543 14.3633 72.5222 14.3217C72.5015 14.2801 72.4697 14.245 72.4304 14.2202C72.3293 14.174 72.2182 14.154 72.1074 14.1618H71.666V15.223H71.9019V14.7834H72.0786L72.1083 14.8425L72.2858 15.2247H72.5496L72.3145 14.7537C72.3808 14.7246 72.4411 14.6833 72.4921 14.632" fill="#BABABA"/>
<path d="M72.0652 13.7271C71.8728 13.7272 71.6847 13.7844 71.5248 13.8914C71.3649 13.9984 71.2403 14.1505 71.1667 14.3283C71.0932 14.5061 71.0739 14.7017 71.1115 14.8904C71.1491 15.0791 71.2418 15.2525 71.3779 15.3885C71.5139 15.5246 71.6872 15.6173 71.876 15.6548C72.0647 15.6924 72.2603 15.6732 72.4381 15.5997C72.6159 15.5261 72.7679 15.4015 72.8749 15.2416C72.9819 15.0817 73.0391 14.8936 73.0393 14.7012C73.0389 14.443 72.9361 14.1955 72.7535 14.0129C72.5709 13.8303 72.3234 13.7275 72.0652 13.7271ZM72.8761 14.7012C72.8761 14.862 72.8284 15.0192 72.739 15.1528C72.6497 15.2865 72.5227 15.3906 72.3741 15.4521C72.2255 15.5135 72.062 15.5295 71.9043 15.4981C71.7467 15.4666 71.6019 15.389 71.4883 15.2752C71.3747 15.1614 71.2975 15.0164 71.2663 14.8587C71.2352 14.7009 71.2515 14.5375 71.3132 14.3891C71.375 14.2406 71.4794 14.1138 71.6133 14.0247C71.7471 13.9356 71.9044 13.8883 72.0652 13.8886C72.1718 13.8886 72.2774 13.9096 72.3759 13.9505C72.4744 13.9913 72.5639 14.0512 72.6392 14.1267C72.7145 14.2021 72.7742 14.2918 72.8148 14.3903C72.8555 14.4889 72.8763 14.5946 72.8761 14.7012Z" fill="#BABABA"/>
<path d="M28.8406 37.7644C28.8271 37.9558 28.8678 38.1472 28.9582 38.3165C29.0027 38.3937 29.0668 38.4578 29.144 38.5023C29.2212 38.5468 29.3088 38.5703 29.3979 38.5702C29.4676 38.5702 29.5363 38.5539 29.5986 38.5228C29.661 38.4917 29.7153 38.4466 29.7572 38.3909C29.8691 38.2239 29.9212 38.0239 29.9052 37.8235C29.9224 37.6151 29.8698 37.4069 29.7555 37.2317C29.7102 37.1736 29.652 37.1269 29.5855 37.0952C29.5191 37.0635 29.4461 37.0477 29.3725 37.049C29.2998 37.048 29.2278 37.0634 29.1619 37.0942C29.096 37.1249 29.0379 37.1702 28.992 37.2266C28.8797 37.383 28.8261 37.574 28.8406 37.766M28.209 39.0201V35.7012H28.8449V36.8968C28.9285 36.7919 29.0345 36.707 29.1553 36.6484C29.276 36.5899 29.4083 36.5592 29.5425 36.5586C29.6793 36.5551 29.8151 36.5818 29.9405 36.6366C30.0658 36.6913 30.1776 36.773 30.268 36.8757C30.4754 37.1333 30.5781 37.4597 30.5555 37.7897C30.5777 38.1312 30.4735 38.4688 30.2629 38.7385C30.1762 38.8433 30.0673 38.9276 29.944 38.9851C29.8207 39.0426 29.6861 39.0718 29.5501 39.0708C29.4085 39.07 29.2692 39.0349 29.1442 38.9685C29.0066 38.8956 28.8881 38.7913 28.7984 38.6641V39.0175L28.209 39.0201Z" fill="#BABABA"/>
<path d="M31.7246 39.0184H31.0879V36.6135H31.6798V36.9518C31.7475 36.8273 31.8405 36.7185 31.9529 36.6322C32.0352 36.5807 32.1306 36.554 32.2277 36.5552C32.3753 36.5557 32.5198 36.597 32.6454 36.6744L32.4501 37.2291C32.3623 37.1666 32.2584 37.1305 32.1508 37.1251C32.0692 37.1225 31.9893 37.1485 31.925 37.1987C31.8494 37.2698 31.7981 37.3631 31.7787 37.465C31.7326 37.731 31.7147 38.0012 31.7254 38.2709L31.7246 39.0184Z" fill="#BABABA"/>
<path d="M32.9619 36.6146H33.5986V39.0194H32.9619V36.6146ZM32.9619 35.6997H33.5986V36.2916H32.9619V35.6997Z" fill="#BABABA"/>
<path d="M36.4886 39.0186H35.8536V37.7917C35.8627 37.6215 35.8488 37.4509 35.8121 37.2844C35.7882 37.2122 35.7413 37.1498 35.6786 37.1068C35.6136 37.0627 35.5363 37.0402 35.4578 37.0425C35.352 37.0409 35.2484 37.0729 35.1619 37.1338C35.0761 37.1907 35.0123 37.2751 34.981 37.3731C34.9404 37.5545 34.9242 37.7405 34.9328 37.9261V39.0153H34.2969V36.6105H34.8888V36.9639C35.0192 36.7844 35.2063 36.6541 35.4198 36.5938C35.6333 36.5336 35.8608 36.5468 36.0658 36.6316C36.1687 36.6728 36.2594 36.7394 36.3296 36.8252C36.389 36.9048 36.4314 36.9958 36.454 37.0924C36.4804 37.2335 36.492 37.3768 36.4886 37.5203V39.0186Z" fill="#BABABA"/>
<path d="M37.6887 37.7671C37.6724 37.9654 37.7246 38.1634 37.8367 38.3278C37.8801 38.3833 37.9357 38.4282 37.9991 38.459C38.0626 38.4898 38.1323 38.5056 38.2028 38.5053C38.2779 38.5059 38.3522 38.4899 38.4203 38.4583C38.4885 38.4267 38.5488 38.3804 38.5968 38.3227C38.7147 38.168 38.7719 37.9755 38.7575 37.7815C38.7731 37.5846 38.7186 37.3884 38.6036 37.2277C38.5569 37.1698 38.4975 37.1233 38.4301 37.0918C38.3627 37.0603 38.289 37.0445 38.2146 37.0458C38.1422 37.0445 38.0705 37.0599 38.005 37.0906C37.9394 37.1214 37.8819 37.1669 37.8367 37.2234C37.726 37.3818 37.6737 37.5745 37.6887 37.7671ZM37.1204 39.1759L37.8477 39.2647C37.8493 39.2979 37.8577 39.3304 37.8722 39.3604C37.8867 39.3903 37.9071 39.417 37.9322 39.4389C38.0181 39.4898 38.1176 39.5131 38.2171 39.5057C38.3461 39.5143 38.4751 39.4886 38.5909 39.4313C38.6506 39.3941 38.6955 39.3373 38.7178 39.2706C38.7428 39.1755 38.753 39.0771 38.7482 38.9788V38.6271C38.6698 38.7468 38.5628 38.8451 38.4369 38.9132C38.3109 38.9813 38.17 39.0169 38.0269 39.0169C37.8748 39.0204 37.7244 38.9845 37.5902 38.9128C37.456 38.8411 37.3425 38.736 37.2608 38.6077C37.106 38.3682 37.0286 38.0868 37.0393 37.8018C37.0162 37.4679 37.1204 37.1377 37.331 36.8776C37.4209 36.7749 37.5323 36.6932 37.6572 36.6381C37.7821 36.583 37.9175 36.556 38.054 36.5588C38.1994 36.5581 38.3428 36.5935 38.4712 36.6618C38.5996 36.7301 38.709 36.8293 38.7896 36.9503V36.6121H39.3815V38.77C39.3897 38.9842 39.3663 39.1985 39.3122 39.4059C39.2752 39.5315 39.2072 39.6458 39.1143 39.7382C39.0172 39.8255 38.9015 39.8896 38.7761 39.9259C38.6019 39.9759 38.4212 39.999 38.24 39.9944C37.9355 40.0225 37.6302 39.9485 37.3724 39.7839C37.2919 39.7213 37.227 39.6408 37.183 39.5487C37.139 39.4567 37.117 39.3557 37.1188 39.2537V39.1759" fill="#BABABA"/>
<path d="M39.8346 38.3296L40.473 38.2324C40.4935 38.3435 40.5536 38.4436 40.6421 38.5139C40.7443 38.5839 40.8669 38.6178 40.9905 38.6103C41.1206 38.6192 41.2503 38.5876 41.3617 38.5199C41.3885 38.5007 41.4101 38.4752 41.4249 38.4458C41.4396 38.4163 41.4469 38.3837 41.4462 38.3507C41.4476 38.3064 41.4316 38.2632 41.4014 38.2306C41.3376 38.1869 41.2648 38.158 41.1883 38.1461C40.8493 38.0923 40.5204 37.9877 40.2126 37.8358C40.1219 37.778 40.0477 37.6977 39.9975 37.6027C39.9472 37.5077 39.9226 37.4012 39.9259 37.2938C39.9251 37.1934 39.947 37.0941 39.9899 37.0033C40.0328 36.9125 40.0956 36.8326 40.1736 36.7695C40.3943 36.611 40.6639 36.5359 40.9347 36.5573C41.1896 36.5395 41.4442 36.5949 41.6686 36.7171C41.8326 36.8306 41.9498 36.9997 41.9984 37.1931L41.3989 37.3048C41.378 37.2175 41.3259 37.1409 41.2526 37.0891C41.1602 37.0338 41.0532 37.0078 40.9457 37.0147C40.822 37.005 40.698 37.0293 40.5871 37.0849C40.5647 37.098 40.546 37.1167 40.5331 37.1393C40.5202 37.1619 40.5135 37.1875 40.5136 37.2135C40.5138 37.2366 40.5197 37.2593 40.5307 37.2797C40.5418 37.3 40.5576 37.3174 40.577 37.3302C40.7658 37.4147 40.9648 37.4746 41.1689 37.5086C41.4231 37.5498 41.6653 37.6462 41.8783 37.791C41.9449 37.8499 41.9973 37.9231 42.0317 38.0051C42.0661 38.087 42.0816 38.1757 42.0771 38.2645C42.0771 38.374 42.0522 38.4821 42.0045 38.5807C41.9567 38.6792 41.8873 38.7657 41.8014 38.8336C41.5661 39.0075 41.2764 39.0916 40.9845 39.0703C40.711 39.0854 40.4394 39.016 40.2066 38.8716C40.019 38.7439 39.8855 38.551 39.832 38.3305" fill="#BABABA"/>
<path d="M45.6011 39.0194V38.6601C45.5128 38.7884 45.3939 38.8928 45.2552 38.9636C45.1158 39.0362 44.9609 39.0739 44.8037 39.0736C44.6521 39.0763 44.5024 39.0399 44.3691 38.9679C44.2457 38.9021 44.1477 38.7971 44.0908 38.6694C44.0267 38.4994 43.9979 38.3181 44.0063 38.1366V36.6146H44.6422V37.7206C44.6328 37.9282 44.6447 38.1361 44.6777 38.3413C44.6986 38.4145 44.7436 38.4786 44.8054 38.5231C44.8748 38.5693 44.9571 38.5924 45.0404 38.589C45.1452 38.5907 45.2479 38.5593 45.3339 38.4994C45.4146 38.4462 45.4762 38.3685 45.5098 38.2778C45.5531 38.0643 45.569 37.8461 45.5571 37.6285V36.6138H46.1938V39.0186L45.6011 39.0194Z" fill="#BABABA"/>
<path d="M46.6736 38.3297L47.3111 38.2324C47.3324 38.3434 47.3923 38.4432 47.4802 38.514C47.5825 38.5838 47.705 38.6177 47.8286 38.6104C47.959 38.6192 48.0889 38.5876 48.2007 38.52C48.2273 38.5006 48.2489 38.4751 48.2636 38.4457C48.2783 38.4163 48.2857 38.3837 48.2852 38.3508C48.2864 38.3064 48.27 38.2632 48.2396 38.2307C48.1764 38.1869 48.1042 38.158 48.0282 38.1462C47.6889 38.0923 47.3597 37.9877 47.0515 37.8359C46.961 37.778 46.8871 37.6977 46.837 37.6026C46.7869 37.5076 46.7623 37.4012 46.7657 37.2939C46.7646 37.1934 46.7864 37.0941 46.8293 37.0032C46.8723 36.9124 46.9352 36.8325 47.0135 36.7696C47.234 36.6109 47.5037 36.5357 47.7745 36.5574C48.0294 36.5395 48.2841 36.5949 48.5085 36.7172C48.6724 36.8307 48.7896 36.9998 48.8383 37.1932L48.2387 37.3048C48.2173 37.2178 48.1654 37.1413 48.0924 37.0892C48.0001 37.0338 47.893 37.0078 47.7855 37.0148C47.6613 37.0053 47.5368 37.0295 47.4253 37.085C47.403 37.0982 47.3846 37.1171 47.3719 37.1396C47.3591 37.1621 47.3525 37.1877 47.3526 37.2136C47.3529 37.2367 47.3589 37.2593 47.3699 37.2797C47.3809 37.3 47.3968 37.3174 47.416 37.3302C47.6048 37.4148 47.8037 37.4748 48.0079 37.5087C48.2624 37.5498 48.5049 37.6462 48.7182 37.7911C48.7849 37.8499 48.8375 37.9231 48.872 38.005C48.9066 38.087 48.9222 38.1757 48.9177 38.2646C48.9173 38.3741 48.8922 38.4821 48.8444 38.5807C48.7965 38.6792 48.7271 38.7656 48.6412 38.8336C48.4057 39.0078 48.1157 39.0918 47.8236 39.0704C47.5503 39.0854 47.279 39.0161 47.0465 38.8717C46.8587 38.7441 46.7252 38.5512 46.6719 38.3306" fill="#BABABA"/>
<path d="M51.9589 36.614V37.1213H51.5251V38.0887C51.5212 38.2033 51.5254 38.318 51.5378 38.432C51.5457 38.4664 51.5663 38.4965 51.5953 38.5165C51.6265 38.5383 51.6639 38.5492 51.7019 38.5478C51.7892 38.541 51.8748 38.5202 51.9555 38.4861L52.0097 38.9799C51.8505 39.0455 51.6795 39.0778 51.5074 39.0746C51.4012 39.0761 51.2958 39.0569 51.1971 39.018C51.1168 38.9881 51.0465 38.9362 50.9941 38.8683C50.9476 38.7932 50.9186 38.7085 50.9095 38.6205C50.891 38.4716 50.884 38.3215 50.8884 38.1715V37.1238H50.5967V36.6165H50.8884V36.1388L51.5268 35.7676V36.6132L51.9589 36.614Z" fill="#BABABA"/>
<path d="M52.9517 37.8168C52.9386 38.0138 52.9988 38.2087 53.1209 38.3639C53.1729 38.4241 53.2372 38.4723 53.3095 38.5054C53.3818 38.5384 53.4603 38.5556 53.5398 38.5556C53.6193 38.5556 53.6979 38.5384 53.7702 38.5054C53.8425 38.4723 53.9068 38.4241 53.9588 38.3639C54.0811 38.2072 54.1413 38.0109 54.1279 37.8126C54.1407 37.6167 54.0805 37.423 53.9588 37.2689C53.9065 37.2092 53.8421 37.1614 53.7698 37.1287C53.6976 37.096 53.6192 37.0791 53.5398 37.0791C53.4605 37.0791 53.3821 37.096 53.3099 37.1287C53.2376 37.1614 53.1732 37.2092 53.1209 37.2689C52.9987 37.4243 52.9385 37.6196 52.9517 37.8168ZM52.2998 37.7822C52.3004 37.5681 52.3538 37.3575 52.4554 37.1691C52.5545 36.9769 52.7092 36.8189 52.8993 36.7159C53.0958 36.6107 53.3157 36.5572 53.5386 36.5603C53.7039 36.5545 53.8687 36.5829 54.0226 36.6439C54.1764 36.7049 54.3159 36.7971 54.4323 36.9146C54.6574 37.1602 54.7822 37.4812 54.7822 37.8143C54.7822 38.1474 54.6574 38.4684 54.4323 38.714C54.3173 38.8318 54.1791 38.9245 54.0264 38.9862C53.8738 39.0479 53.71 39.0773 53.5454 39.0726C53.3264 39.0728 53.1103 39.0218 52.9145 38.9237C52.7197 38.8294 52.5599 38.6758 52.4579 38.4849C52.348 38.2671 52.2945 38.0252 52.3023 37.7813" fill="#BABABA"/>
<path d="M55.8361 37.7671C55.8197 37.9655 55.8719 38.1634 55.9841 38.3278C56.0275 38.3834 56.0831 38.4283 56.1466 38.4591C56.21 38.4899 56.2797 38.5057 56.3502 38.5053C56.4253 38.5059 56.4996 38.4899 56.5678 38.4583C56.6359 38.4267 56.6962 38.3804 56.7443 38.3227C56.8619 38.1679 56.9187 37.9754 56.9041 37.7815C56.9197 37.5846 56.8652 37.3884 56.7502 37.2277C56.7034 37.1698 56.6441 37.1234 56.5767 37.0919C56.5093 37.0604 56.4356 37.0446 56.3612 37.0458C56.289 37.0446 56.2174 37.06 56.152 37.0907C56.0866 37.1215 56.0292 37.1669 55.9841 37.2234C55.8733 37.3817 55.821 37.5745 55.8361 37.7671ZM55.2687 39.1759L55.9951 39.2647C55.9991 39.3316 56.0295 39.3943 56.0796 39.4389C56.1658 39.4898 56.2656 39.5131 56.3654 39.5057C56.4942 39.5145 56.6229 39.4888 56.7383 39.4313C56.7982 39.3939 56.8436 39.3372 56.8669 39.2706C56.8907 39.1753 56.9004 39.077 56.8956 38.9789V38.6271C56.8175 38.7468 56.7108 38.845 56.5852 38.9131C56.4596 38.9812 56.3189 39.0169 56.176 39.0169C56.0238 39.0205 55.8732 38.9847 55.7388 38.913C55.6044 38.8413 55.4909 38.7361 55.4091 38.6077C55.254 38.3683 55.1763 38.0869 55.1867 37.8018C55.1638 37.4681 55.2677 37.138 55.4776 36.8776C55.5679 36.7749 55.6795 36.6931 55.8047 36.6381C55.9298 36.583 56.0655 36.5559 56.2023 36.5588C56.3476 36.5581 56.4908 36.5936 56.6191 36.6619C56.7473 36.7302 56.8566 36.8293 56.9371 36.9503V36.6121H57.5289V38.77C57.5376 38.9843 57.514 39.1986 57.4588 39.4059C57.4211 39.531 57.3535 39.6451 57.2618 39.7382C57.1642 39.825 57.0488 39.889 56.9236 39.9259C56.75 39.9759 56.5697 39.999 56.3891 39.9944C56.0846 40.0225 55.7794 39.9484 55.5216 39.7839C55.441 39.7213 55.3761 39.6408 55.3321 39.5488C55.288 39.4567 55.2661 39.3557 55.2679 39.2537L55.2687 39.1759Z" fill="#BABABA"/>
<path d="M59.6327 37.6117C59.64 37.4578 59.589 37.3068 59.4898 37.1889C59.4482 37.1429 59.3973 37.1063 59.3404 37.0815C59.2836 37.0567 59.2221 37.0443 59.1601 37.0451C59.0951 37.0435 59.0306 37.0562 58.9711 37.0824C58.9116 37.1086 58.8586 37.1475 58.8159 37.1965C58.7208 37.3122 58.6731 37.4596 58.6823 37.6091L59.6327 37.6117ZM59.5964 38.2551L60.2297 38.3608C60.162 38.5751 60.0268 38.7618 59.8441 38.8927C59.648 39.0199 59.4173 39.0833 59.1837 39.0745C59.0069 39.0882 58.8294 39.058 58.6671 38.9864C58.5048 38.9149 58.3628 38.8042 58.2536 38.6644C58.0876 38.4211 58.0043 38.1309 58.016 37.8366C57.9958 37.4961 58.1076 37.1608 58.328 36.9005C58.4276 36.7904 58.5498 36.7031 58.6863 36.6447C58.8227 36.5863 58.9703 36.5582 59.1187 36.5623C59.2771 36.5546 59.4352 36.5825 59.5815 36.6438C59.7278 36.7051 59.8586 36.7983 59.9642 36.9166C60.1943 37.2292 60.3001 37.6161 60.261 38.0023H58.6662C58.6617 38.1631 58.7165 38.3199 58.8201 38.4429C58.8666 38.4939 58.9235 38.5344 58.987 38.5615C59.0505 38.5886 59.119 38.6018 59.188 38.6002C59.2799 38.603 59.3698 38.573 59.4416 38.5156C59.5188 38.4462 59.5725 38.3546 59.5955 38.2534" fill="#BABABA"/>
<path d="M61.9326 36.614V37.1213H61.498V38.0887C61.4941 38.2033 61.498 38.318 61.5098 38.432C61.5183 38.4659 61.5383 38.4958 61.5665 38.5165C61.5984 38.538 61.6362 38.5489 61.6747 38.5478C61.762 38.541 61.8477 38.5202 61.9284 38.4861L61.9825 38.9799C61.8217 39.0462 61.649 39.0784 61.4752 39.0746C61.3693 39.0758 61.2642 39.0566 61.1657 39.018C61.0854 38.9879 61.0151 38.9361 60.9627 38.8683C60.9159 38.7933 60.887 38.7085 60.8782 38.6205C60.8598 38.4716 60.8527 38.3215 60.857 38.1715V37.1238H60.5645V36.6165H60.857V36.1388L61.4954 35.7676V36.6132L61.9326 36.614Z" fill="#BABABA"/>
<path d="M63.0548 35.6997V36.919C63.1864 36.7542 63.3688 36.6376 63.5736 36.5872C63.7784 36.5369 63.9941 36.5557 64.1871 36.6408C64.2926 36.6854 64.3845 36.7572 64.4534 36.8489C64.5133 36.9333 64.555 37.0291 64.576 37.1304C64.6016 37.2878 64.6124 37.4472 64.6082 37.6065V39.0178H63.9723V37.7494C63.9809 37.5884 63.9687 37.427 63.9359 37.2691C63.9127 37.2027 63.8677 37.1461 63.8082 37.1085C63.7394 37.0655 63.6593 37.0443 63.5783 37.0476C63.4785 37.0459 63.3802 37.0726 63.295 37.1245C63.2093 37.1787 63.1451 37.2609 63.1132 37.3571C63.0683 37.5055 63.0488 37.6604 63.0557 37.8154V39.0203H62.4189V35.7014L63.0548 35.6997Z" fill="#BABABA"/>
<path d="M66.7284 37.6117C66.7351 37.4577 66.6838 37.3068 66.5847 37.1889C66.5429 37.1428 66.4919 37.1062 66.4349 37.0814C66.3778 37.0566 66.3162 37.0443 66.2541 37.0451C66.1892 37.0437 66.1249 37.0565 66.0656 37.0827C66.0063 37.1088 65.9534 37.1477 65.9107 37.1965C65.8153 37.312 65.7673 37.4595 65.7763 37.6091L66.7284 37.6117ZM66.6921 38.2551L67.3254 38.3608C67.2576 38.5751 67.1223 38.7617 66.9398 38.8927C66.7436 39.0199 66.513 39.0833 66.2794 39.0745C66.1025 39.0884 65.9251 39.0582 65.7627 38.9866C65.6004 38.915 65.4583 38.8043 65.3493 38.6644C65.1829 38.4213 65.0996 38.1309 65.1117 37.8366C65.0916 37.4959 65.2037 37.1607 65.4245 36.9005C65.5239 36.7904 65.6459 36.703 65.7823 36.6446C65.9186 36.5863 66.066 36.5581 66.2143 36.5623C66.3728 36.5546 66.5309 36.5825 66.6772 36.6438C66.8235 36.7051 66.9543 36.7983 67.0599 36.9166C67.2895 37.2295 67.3952 37.6162 67.3567 38.0023H65.7619C65.7564 38.1632 65.8113 38.3204 65.9158 38.4429C65.9621 38.4939 66.0188 38.5344 66.0821 38.5616C66.1455 38.5887 66.2139 38.6019 66.2828 38.6002C66.3747 38.6031 66.4647 38.5731 66.5365 38.5156C66.6138 38.4464 66.6676 38.3547 66.6904 38.2534" fill="#BABABA"/>
<path d="M68.5343 39.0184H67.8984V36.6136H68.4903V36.9518C68.5577 36.8271 68.6509 36.7182 68.7635 36.6322C68.8457 36.5805 68.9411 36.5538 69.0382 36.5552C69.1875 36.5553 69.3338 36.5965 69.461 36.6745L69.264 37.2292C69.1766 37.1666 69.0729 37.1305 68.9655 37.1252C68.884 37.1223 68.804 37.1484 68.7398 37.1987C68.664 37.2697 68.6127 37.363 68.5935 37.4651C68.5462 37.7309 68.5281 38.0011 68.5394 38.2709L68.5343 39.0184Z" fill="#BABABA"/>
</svg>
