<svg width="40" height="40" viewBox="0 0 40 40" fill="none" xmlns="http://www.w3.org/2000/svg">
<g id="tiq-btn.e2d457b4 1">
<path id="Vector" d="M35.5456 1.53076L38.4237 4.24723C38.7917 4.61604 39.0836 5.05421 39.2826 5.53659C39.4816 6.01897 39.5838 6.53606 39.5834 7.05819V35.5721C39.5834 36.6265 39.1662 37.6377 38.4239 38.3832C37.6814 39.1288 36.6745 39.5477 35.6245 39.5477H7.23459C6.71461 39.5484 6.19959 39.446 5.7192 39.2461C5.23881 39.0462 4.80252 38.7529 4.43543 38.3831L1.24805 35.3291" fill="#C6C6C6"/>
<path id="Vector_2" d="M32.6853 0.30127H4.29112C2.10565 0.30127 0.333984 2.08042 0.333984 4.27511V32.789C0.333984 34.9837 2.10565 36.7628 4.29112 36.7628H32.6853C34.8707 36.7628 36.6424 34.9837 36.6424 32.789V4.27511C36.6424 2.08042 34.8707 0.30127 32.6853 0.30127Z" fill="white"/>
<path id="Vector_3" d="M7.05513 15.7494H3.29883V13.2769H13.4098V15.7494H9.65347V26.049H7.05513V15.7494Z" fill="#448EF6"/>
<path id="Vector_4" d="M15.1826 13.2769H17.7809V26.049H15.1826V13.2769Z" fill="#448EF6"/>
<path id="Vector_5" d="M31.3832 23.3901L32.5067 24.4314L31.1908 26.0491L29.9622 24.915C28.8714 25.7928 27.5155 26.2717 26.1177 26.2728C22.6597 26.2728 19.7109 23.2424 19.7109 19.6542C19.7109 16.066 22.6597 13.0542 26.1177 13.0542C29.6109 13.0542 32.5244 16.066 32.5244 19.6542C32.523 20.9858 32.1256 22.2868 31.3832 23.3901ZM28.0488 23.1673L26.6462 21.866L27.9622 20.2483L29.4193 21.5867C29.723 20.9881 29.8794 20.3252 29.8756 19.6534C29.8756 17.4407 28.1555 15.5445 26.1193 15.5445C24.1025 15.5445 22.3807 17.4407 22.3807 19.6534C22.3807 21.8846 24.1009 23.7808 26.1193 23.7808C26.8096 23.7782 27.4827 23.5642 28.0488 23.1673Z" fill="#448EF6"/>
<path id="Vector_6" d="M38.663 4.04811L38.6555 4.04135L35.7219 1.26498C35.7176 1.26134 35.7131 1.25796 35.7084 1.25485C35.3109 0.856456 34.8392 0.540589 34.3201 0.325281C33.801 0.109973 33.2448 -0.000559531 32.6832 2.1298e-06H4.29328C3.15503 0.00134215 2.0638 0.456007 1.25894 1.26426C0.454088 2.07251 0.00133442 3.16835 2.5091e-08 4.3114V32.8253C-6.50016e-05 33.4289 0.126265 34.0256 0.370786 34.5769C0.615307 35.1282 0.972555 35.6217 1.41933 36.0253C1.42616 36.0342 1.43345 36.0426 1.44118 36.0506L4.20252 38.6616C4.60028 39.0624 5.07314 39.3801 5.59382 39.5963C6.1145 39.8126 6.67268 39.9231 7.23613 39.9215H35.6269C36.7655 39.9202 37.8572 39.4653 38.6624 38.6568C39.4676 37.8482 39.9205 36.7519 39.9219 35.6084V7.0979C39.9232 6.53121 39.8127 5.96989 39.5966 5.4464C39.3805 4.92291 39.0632 4.44765 38.663 4.04811ZM0.671428 32.8245V4.3114C0.67254 3.34719 1.05451 2.42281 1.73352 1.74109C2.41253 1.05938 3.33312 0.676001 4.29328 0.675107H32.6874C33.6477 0.675777 34.5685 1.05905 35.2477 1.74079C35.9269 2.42253 36.309 3.34705 36.3101 4.3114V32.8253C36.309 33.7894 35.9271 34.7137 35.2483 35.3954C34.5695 36.077 33.6491 36.4605 32.6891 36.4616H4.29328C3.33282 36.4612 2.41181 36.078 1.73244 35.3962C1.05306 34.7144 0.670859 33.7898 0.669745 32.8253L0.671428 32.8245ZM39.2487 35.6093C39.2476 36.5738 38.8656 37.4985 38.1865 38.1805C37.5073 38.8625 36.5865 39.2462 35.6261 39.2473H7.23445C6.75843 39.2484 6.28689 39.1549 5.84711 38.9719C5.40732 38.7889 5.00802 38.5203 4.67227 38.1814L4.66555 38.1747L3.48908 37.0608C3.75415 37.1116 4.0234 37.1374 4.29328 37.1376H32.6874C33.8261 37.1366 34.9179 36.6821 35.7231 35.8736C36.5283 35.0651 36.9813 33.9688 36.9824 32.8253V4.3114C36.9825 3.95656 36.9387 3.60308 36.8521 3.25907L38.1966 4.52912C38.5325 4.8662 38.7987 5.26673 38.9797 5.70762C39.1607 6.14851 39.253 6.62101 39.2513 7.0979L39.2487 35.6093Z" fill="#575756"/>
</g>
</svg>
