<svg width="17" height="16" viewBox="0 0 17 16" fill="none" xmlns="http://www.w3.org/2000/svg">
<g id="Group">
<path id="Vector" d="M8.5 15.8188L4.25734 11.5761C3.41823 10.737 2.84679 9.66789 2.61529 8.50401C2.38378 7.34013 2.5026 6.13373 2.95673 5.03738C3.41086 3.94103 4.1799 3.00396 5.16659 2.34467C6.15328 1.68539 7.31332 1.3335 8.5 1.3335C9.68669 1.3335 10.8467 1.68539 11.8334 2.34467C12.8201 3.00396 13.5891 3.94103 14.0433 5.03738C14.4974 6.13373 14.6162 7.34013 14.3847 8.50401C14.1532 9.66789 13.5818 10.737 12.7427 11.5761L8.5 15.8188ZM11.8 10.6334C12.4526 9.98078 12.897 9.14926 13.077 8.24403C13.2571 7.33879 13.1646 6.40051 12.8114 5.54781C12.4582 4.69512 11.86 3.96632 11.0926 3.45356C10.3252 2.9408 9.42296 2.66711 8.5 2.66711C7.57704 2.66711 6.67481 2.9408 5.90739 3.45356C5.13997 3.96632 4.54183 4.69512 4.18861 5.54781C3.83539 6.40051 3.74294 7.33879 3.92297 8.24403C4.103 9.14926 4.54741 9.98078 5.2 10.6334L8.5 13.9334L11.8 10.6334ZM8.5 8.66678C8.14638 8.66678 7.80724 8.5263 7.55719 8.27625C7.30715 8.0262 7.16667 7.68707 7.16667 7.33344C7.16667 6.97982 7.30715 6.64068 7.55719 6.39064C7.80724 6.14059 8.14638 6.00011 8.5 6.00011C8.85362 6.00011 9.19276 6.14059 9.44281 6.39064C9.69286 6.64068 9.83334 6.97982 9.83334 7.33344C9.83334 7.68707 9.69286 8.0262 9.44281 8.27625C9.19276 8.5263 8.85362 8.66678 8.5 8.66678Z" fill="#548C67"/>
</g>
</svg>
