<svg width="19" height="18" viewBox="0 0 19 18" fill="none" xmlns="http://www.w3.org/2000/svg">
<path fill-rule="evenodd" clip-rule="evenodd" d="M14.2246 0H5.22461C2.74983 0 0.724609 2.02432 0.724609 4.5V13.5C0.724609 15.9748 2.74983 18 5.22461 18H14.2246C16.6994 18 18.7246 15.9748 18.7246 13.5V4.5C18.7246 2.02432 16.6994 0 14.2246 0ZM9.72461 12.7499C7.65326 12.7499 5.97453 11.0704 5.97453 9C5.97453 6.92865 7.65326 5.24993 9.72461 5.24993C11.7951 5.24993 13.4747 6.92865 13.4747 9C13.4747 11.0704 11.7951 12.7499 9.72461 12.7499ZM13.4747 4.12492C13.4747 4.74615 13.9778 5.24992 14.5997 5.24992C15.2216 5.24992 15.7247 4.74615 15.7247 4.12492C15.7247 3.5037 15.2216 2.99992 14.5997 2.99992C13.9778 2.99992 13.4747 3.5037 13.4747 4.12492Z" fill="black"/>
</svg>
