<svg width="18" height="18" viewBox="0 0 18 18" fill="none" xmlns="http://www.w3.org/2000/svg">
<path d="M3.37944 11C4.50911 11 5.42489 10.1046 5.42489 9C5.42489 7.89543 4.50911 7 3.37944 7C2.24977 7 1.33398 7.89543 1.33398 9C1.33398 10.1046 2.24977 11 3.37944 11Z" stroke="#6C757D" stroke-width="1.5" stroke-linecap="round" stroke-linejoin="round"/>
<path d="M14.2886 5C15.4183 5 16.3341 4.10457 16.3341 3C16.3341 1.89543 15.4183 1 14.2886 1C13.1589 1 12.2432 1.89543 12.2432 3C12.2432 4.10457 13.1589 5 14.2886 5Z" stroke="#6C757D" stroke-width="1.5" stroke-linecap="round" stroke-linejoin="round"/>
<path d="M14.2886 17C15.4183 17 16.3341 16.1046 16.3341 15C16.3341 13.8954 15.4183 13 14.2886 13C13.1589 13 12.2432 13.8954 12.2432 15C12.2432 16.1046 13.1589 17 14.2886 17Z" stroke="#6C757D" stroke-width="1.5" stroke-linecap="round" stroke-linejoin="round"/>
<path d="M5.16211 9.98047L12.5061 14.0196M12.5061 3.98047L5.16211 8.01964" stroke="#6C757D" stroke-width="1.5" stroke-linecap="round" stroke-linejoin="round"/>
</svg>
