<svg xmlns="http://www.w3.org/2000/svg" xmlns:xlink="http://www.w3.org/1999/xlink" viewBox="0,0,256,256" width="50px" height="50px" fill-rule="nonzero"><g fill="#c1c7cd" fill-rule="nonzero" stroke="none" stroke-width="1" stroke-linecap="butt" stroke-linejoin="miter" stroke-miterlimit="10" stroke-dasharray="" stroke-dashoffset="0" font-family="none" font-weight="none" font-size="none" text-anchor="none" style="mix-blend-mode: normal"><g transform="scale(5.12,5.12)"><path d="M25,1c-8.83984,0 -16,7.16016 -16,16c0,7.30859 3.85938,15.16406 7.65625,21.25c3.79688,6.08594 7.59375,10.40625 7.59375,10.40625c0.19141,0.21484 0.46484,0.33984 0.75,0.33984c0.28516,0 0.55859,-0.125 0.75,-0.33984c0,0 3.80078,-4.41016 7.59375,-10.53125c3.79297,-6.12109 7.65625,-13.95703 7.65625,-21.125c0,-8.83984 -7.16016,-16 -16,-16zM25,3c7.76172,0 14,6.23828 14,14c0,6.43359 -3.63672,14.08203 -7.34375,20.0625c-3.10547,5.01172 -5.73437,8.23828 -6.65625,9.34375c-0.92969,-1.09766 -3.55859,-4.25391 -6.65625,-9.21875c-3.70312,-5.9375 -7.34375,-13.59766 -7.34375,-20.1875c0,-7.76172 6.23828,-14 14,-14zM25,11c-3.85547,0 -7,3.14453 -7,7c0,3.85547 3.14453,7 7,7c3.85547,0 7,-3.14453 7,-7c0,-3.85547 -3.14453,-7 -7,-7zM25,13c2.77344,0 5,2.22656 5,5c0,2.77344 -2.22656,5 -5,5c-2.77344,0 -5,-2.22656 -5,-5c0,-2.77344 2.22656,-5 5,-5z"></path></g></g></svg>