<svg width="48" height="48" viewBox="0 0 48 48" fill="none" xmlns="http://www.w3.org/2000/svg">
<path d="M30 45.5H18C7.14 45.5 2.5 40.86 2.5 30V18C2.5 7.14 7.14 2.5 18 2.5H30C40.86 2.5 45.5 7.14 45.5 18V30C45.5 40.86 40.86 45.5 30 45.5ZM18 5.5C8.78 5.5 5.5 8.78 5.5 18V30C5.5 39.22 8.78 42.5 18 42.5H30C39.22 42.5 42.5 39.22 42.5 30V18C42.5 8.78 39.22 5.5 30 5.5H18Z" fill="#C1C7CD"/>
<path d="M35.8 19.6C35.76 19.6 35.7 19.6 35.66 19.6C28.74 18.92 21.8601 18.64 15.0401 19.34L12.36 19.6C11.52 19.68 10.8 19.08 10.72 18.26C10.64 17.44 11.24 16.7 12.06 16.62L14.74 16.36C21.76 15.66 28.84 15.92 35.96 16.62C36.78 16.7 37.38 17.44 37.3 18.26C37.22 19.02 36.56 19.6 35.8 19.6Z" fill="#C1C7CD"/>
<path d="M28.58 18.2799C27.86 18.2799 27.22 17.7599 27.1 17.0399L26.82 15.3399C26.78 15.0599 26.7 14.6199 26.62 14.5199C26.62 14.5199 26.42 14.3999 25.7 14.3999H22.26C21.52 14.3999 21.32 14.5199 21.32 14.5199C21.28 14.5999 21.2 15.0399 21.16 15.3199L20.88 17.0399C20.74 17.8599 19.96 18.3999 19.16 18.2799C18.34 18.1399 17.8 17.3599 17.92 16.5599L18.2 14.8399C18.42 13.5599 18.78 11.4199 22.26 11.4199H25.7C29.2 11.4199 29.56 13.6599 29.76 14.8599L30.04 16.5599C30.18 17.3799 29.62 18.1599 28.82 18.2799C28.76 18.2799 28.66 18.2799 28.58 18.2799Z" fill="#C1C7CD"/>
<path d="M28.2 36.6202H19.78C14.72 36.6202 14.5 33.5802 14.36 31.5602L13.5 18.3402C13.44 17.5202 14.08 16.8002 14.9 16.7402C15.74 16.6802 16.44 17.3203 16.5 18.1403L17.36 31.3402C17.5 33.3002 17.52 33.6002 19.78 33.6002H28.2C30.46 33.6002 30.48 33.3002 30.62 31.3402L31.48 18.1403C31.54 17.3203 32.22 16.6802 33.08 16.7402C33.9 16.8002 34.54 17.5002 34.48 18.3402L33.62 31.5402C33.48 33.5802 33.28 36.6202 28.2 36.6202Z" fill="#C1C7CD"/>
</svg>
